<svg xmlns="http://www.w3.org/2000/svg" viewBox="0 0 133.4222 111.71519" height="422230.639" width="133.422mm"><path d="M20.173 43.616c8.54 5.614 13.822 9.58 13.56 18.807-.26 9.226-6.065 23.714-4.122 33.78 1.943 10.066 11.633 15.71 20.15 15.507 8.517-.203 15.86-6.25 20.15-15.628 4.29-9.378 5.526-22.085 14.804-27.68 9.28-5.597 26.6-4.08 36.908-8.655 10.31-4.573 13.605-15.235 10.894-24.196-2.712-8.96-11.43-16.223-23.56-14.078-12.13 2.145-27.67 13.696-42.33 8.932C51.962 25.64 38.18 4.56 25.23.686 12.282-3.188.164 10.144.002 20.442c-.162 10.298 11.632 17.56 20.17 23.174z" fill="#f33"/></svg>