<svg viewBox="0 0 664 480" version="1.1" xmlns="http://www.w3.org/2000/svg" xmlns:xlink="http://www.w3.org/1999/xlink">
<title>iPad</title>
<desc>Created using Figma</desc>
<g id="Canvas" transform="translate(-702 1119)">
<g id="iPad">
<g id="iPad" filter="url(#filter0_d)">
<use xlink:href="#path0_fill" transform="translate(729 -1110)" fill="#FFFFFF"/>
</g>
<g id="Button">
<use xlink:href="#path1_fill" transform="translate(1303 -911)" fill="#F4F6F9"/>
</g>
<g id="Screen">
<use xlink:href="#path2_fill" transform="translate(772 -1094)" fill="#F7F9FB"/>
</g>
</g>
</g>
<defs>
<filter id="filter0_d" filterUnits="userSpaceOnUse" x="702" y="-1119" width="664" height="480" color-interpolation-filters="sRGB">
<feFlood flood-opacity="0" result="BackgroundImageFix"/>
<feColorMatrix in="SourceAlpha" type="matrix" values="0 0 0 0 0 0 0 0 0 0 0 0 0 0 0 0 0 0 255 0"/>
<feOffset dx="0" dy="18"/>
<feGaussianBlur stdDeviation="13.5"/>
<feColorMatrix type="matrix" values="0 0 0 0 0 0 0 0 0 0 0 0 0 0 0 0 0 0 0.03 0"/>
<feBlend mode="normal" in2="BackgroundImageFix" result="effect1_dropShadow"/>
<feBlend mode="normal" in="SourceGraphic" in2="effect1_dropShadow" result="shape"/>
</filter>
<path id="path0_fill" fill-rule="evenodd" d="M 0 25C 0 11.1929 11.1929 0 25 0L 585 0C 598.807 0 610 11.1929 610 25L 610 401C 610 414.807 598.807 426 585 426L 25 426C 11.1929 426 0 414.807 0 401L 0 25Z"/>
<path id="path1_fill" fill-rule="evenodd" d="M 13.5 27C 20.9558 27 27 20.9558 27 13.5C 27 6.04416 20.9558 0 13.5 0C 6.04416 0 0 6.04416 0 13.5C 0 20.9558 6.04416 27 13.5 27Z"/>
<path id="path2_fill" fill-rule="evenodd" d="M 0 4C 0 1.79086 1.79086 0 4 0L 520 0C 522.209 0 524 1.79086 524 4L 524 390C 524 392.209 522.209 394 520 394L 4 394C 1.79086 394 0 392.209 0 390L 0 4Z"/>
</defs>
</svg>
